<?xml version="1.0" encoding="iso-8859-1"?>
<!-- Generator: Adobe Illustrator 19.0.0, SVG Export Plug-In . SVG Version: 6.00 Build 0)  -->
<svg version="1.1" id="Layer_1" xmlns="http://www.w3.org/2000/svg" xmlns:xlink="http://www.w3.org/1999/xlink" x="0px" y="0px"
	 viewBox="128 248 248 1" fill="#FFFFFF" xml:space="preserve">
<g>
	<g>
		<path d="M211.293,266.564l-0.554,1.473c-0.88,2.345-2.086,4.345-3.585,5.942c-1.523,1.62-3.266,2.966-5.18,3.996
			c-1.931,1.041-3.961,1.792-6.032,2.236c-6.093,1.305-11.796,0.716-16.383-1.62c-3.021-1.532-5.606-3.616-7.685-6.193
			c-2.095-2.591-3.714-5.629-4.813-9.032c-1.108-3.416-1.669-7.041-1.669-10.78c0-3.331,0.487-6.736,1.447-10.119
			c0.951-3.349,2.418-6.387,4.364-9.031c1.926-2.616,4.429-4.769,7.444-6.397c4.429-2.398,10.384-3.08,17.094-1.833
			c2.123,0.395,4.206,1.097,6.191,2.089c1.96,0.981,3.776,2.325,5.396,3.994c1.6,1.652,2.911,3.782,3.891,6.332l0.608,1.578
			l25.79-18.348l-0.538-1.016c-3.988-7.541-10.124-13.684-18.24-18.252c-8.094-4.555-17.77-6.865-28.764-6.865
			c-9.182,0-17.478,1.683-24.655,5.006c-7.156,3.311-13.334,7.702-18.364,13.052c-5.031,5.352-8.91,11.485-11.531,18.226
			c-2.62,6.732-3.949,13.678-3.949,20.64c0,7.281,1.409,14.545,4.185,21.592c2.779,7.054,6.76,13.445,11.832,18.993
			c5.077,5.56,11.201,10.088,18.202,13.452c7.025,3.379,14.876,5.094,23.333,5.094c4.794,0,9.798-0.595,14.868-1.767
			c5.066-1.175,9.883-2.907,14.318-5.149c4.457-2.258,8.485-5.089,11.972-8.414c3.529-3.366,6.204-7.23,7.948-11.479l0.429-1.046
			L211.293,266.564z"/>
	</g>
</g>
<g>
	<g>
		<polygon points="291.42,239.458 291.42,224.492 262.014,224.492 262.014,239.458 248.623,239.458 248.623,265.715
			262.014,265.715 262.014,280.681 291.42,280.681 291.42,265.715 304.812,265.715 304.812,239.458 		"/>
	</g>
</g>
<g>
	<g>
		<polygon points="363.573,239.458 363.573,224.492 334.165,224.492 334.165,239.458 320.775,239.458 320.775,265.715
			334.165,265.715 334.165,280.681 363.573,280.681 363.573,265.715 376.965,265.715 376.965,239.458 		"/>
	</g>
</g>
<g>
</g>
<g>
</g>
<g>
</g>
<g>
</g>
<g>
</g>
<g>
</g>
<g>
</g>
<g>
</g>
<g>
</g>
<g>
</g>
<g>
</g>
<g>
</g>
<g>
</g>
<g>
</g>
<g>
</g>
</svg>
