<svg height="512" viewBox="0 0 64 64" width="512" xmlns="http://www.w3.org/2000/svg"><g><path d="m62 12.49a10.5 10.5 0 1 0 -12.67 10.27 9 9 0 0 1 -8.84 7.24h-17a9 9 0 0 1 -8.84-7.24 10.53 10.53 0 1 0 -4 0 13 13 0 0 0 12.86 11.24h6.49v7.21a10.49 10.49 0 1 0 4 0v-7.21h6.49a13 13 0 0 0 12.87-11.19 10.5 10.5 0 0 0 8.64-10.32zm-56 0a6.5 6.5 0 1 1 6.49 6.51 6.5 6.5 0 0 1 -6.49-6.51zm32.49 39a6.49 6.49 0 1 1 -6.49-6.49 6.5 6.5 0 0 1 6.49 6.51zm13.02-32.49a6.5 6.5 0 1 1 6.49-6.51 6.51 6.51 0 0 1 -6.49 6.51z" fill="#FFFFFF"/></g></svg>
