<svg height="512" fill="#FFFFFF" viewBox="0 0 24 24" width="512" xmlns="http://www.w3.org/2000/svg"><g id="Layer_47" data-name="Layer 47"><path d="m21.39 11.6a2.12 2.12 0 0 0 .49-2.17 2.09 2.09 0 0 0 -1.69-1.43l-4.29-.66a.14.14 0 0 1 -.09-.08l-1.88-4a2.11 2.11 0 0 0 -1.93-1.26 2.1 2.1 0 0 0 -1.92 1.23l-1.88 4a.16.16 0 0 1 -.1.08l-4.28.69a2.12 2.12 0 0 0 -1.7 1.43 2.15 2.15 0 0 0 .5 2.17l3.16 3.25a.16.16 0 0 1 0 .13l-.74 4.54a2.12 2.12 0 0 0 3.13 2.21l3.73-2.07a.13.13 0 0 1 .12 0l3.73 2.07a2.13 2.13 0 0 0 3.13-2.21l-.69-4.52a.12.12 0 0 1 0-.12z"/></g></svg>
